<mxfile host="app.diagrams.net" modified="2024-05-18T03:44:43.071Z" agent="Mozilla/5.0 (Windows NT 10.0; Win64; x64) AppleWebKit/537.36 (KHTML, like Gecko) Chrome/122.0.0.0 Safari/537.36" etag="1SM9SaCb09WnCJer4bls" version="24.4.4" type="github">
  <diagram id="C5RBs43oDa-KdzZeNtuy" name="Page-1">
    <mxGraphModel dx="1434" dy="772" grid="1" gridSize="10" guides="1" tooltips="1" connect="1" arrows="1" fold="1" page="1" pageScale="1" pageWidth="827" pageHeight="1169" math="0" shadow="0">
      <root>
        <mxCell id="WIyWlLk6GJQsqaUBKTNV-0" />
        <mxCell id="WIyWlLk6GJQsqaUBKTNV-1" parent="WIyWlLk6GJQsqaUBKTNV-0" />
        <mxCell id="ugkiWy4A_dcpR8CHFcpf-13" style="edgeStyle=orthogonalEdgeStyle;rounded=0;orthogonalLoop=1;jettySize=auto;html=1;exitX=0.5;exitY=1;exitDx=0;exitDy=0;entryX=0.5;entryY=0;entryDx=0;entryDy=0;" edge="1" parent="WIyWlLk6GJQsqaUBKTNV-1" source="ugkiWy4A_dcpR8CHFcpf-0" target="ugkiWy4A_dcpR8CHFcpf-1">
          <mxGeometry relative="1" as="geometry" />
        </mxCell>
        <mxCell id="ugkiWy4A_dcpR8CHFcpf-0" value="Client" style="html=1;whiteSpace=wrap;" vertex="1" parent="WIyWlLk6GJQsqaUBKTNV-1">
          <mxGeometry x="200" y="80" width="110" height="40" as="geometry" />
        </mxCell>
        <mxCell id="ugkiWy4A_dcpR8CHFcpf-4" value="" style="group" vertex="1" connectable="0" parent="WIyWlLk6GJQsqaUBKTNV-1">
          <mxGeometry x="200" y="200" width="110" height="80" as="geometry" />
        </mxCell>
        <mxCell id="ugkiWy4A_dcpR8CHFcpf-1" value="«interface»&lt;br&gt;&lt;b&gt;Component&lt;/b&gt;" style="html=1;whiteSpace=wrap;" vertex="1" parent="ugkiWy4A_dcpR8CHFcpf-4">
          <mxGeometry width="110" height="50" as="geometry" />
        </mxCell>
        <mxCell id="ugkiWy4A_dcpR8CHFcpf-3" value="+ execute()" style="html=1;whiteSpace=wrap;align=left;" vertex="1" parent="ugkiWy4A_dcpR8CHFcpf-4">
          <mxGeometry y="50" width="110" height="30" as="geometry" />
        </mxCell>
        <mxCell id="ugkiWy4A_dcpR8CHFcpf-5" value="Leaf" style="swimlane;fontStyle=1;align=center;verticalAlign=top;childLayout=stackLayout;horizontal=1;startSize=26;horizontalStack=0;resizeParent=1;resizeParentMax=0;resizeLast=0;collapsible=1;marginBottom=0;whiteSpace=wrap;html=1;" vertex="1" parent="WIyWlLk6GJQsqaUBKTNV-1">
          <mxGeometry x="190" y="360" width="160" height="86" as="geometry" />
        </mxCell>
        <mxCell id="ugkiWy4A_dcpR8CHFcpf-18" value="" style="endArrow=block;endSize=16;endFill=0;html=1;rounded=0;" edge="1" parent="ugkiWy4A_dcpR8CHFcpf-5">
          <mxGeometry width="160" relative="1" as="geometry">
            <mxPoint x="70" as="sourcePoint" />
            <mxPoint x="70" y="-80" as="targetPoint" />
          </mxGeometry>
        </mxCell>
        <mxCell id="ugkiWy4A_dcpR8CHFcpf-6" value="+" style="text;strokeColor=none;fillColor=none;align=left;verticalAlign=top;spacingLeft=4;spacingRight=4;overflow=hidden;rotatable=0;points=[[0,0.5],[1,0.5]];portConstraint=eastwest;whiteSpace=wrap;html=1;" vertex="1" parent="ugkiWy4A_dcpR8CHFcpf-5">
          <mxGeometry y="26" width="160" height="26" as="geometry" />
        </mxCell>
        <mxCell id="ugkiWy4A_dcpR8CHFcpf-7" value="" style="line;strokeWidth=1;fillColor=none;align=left;verticalAlign=middle;spacingTop=-1;spacingLeft=3;spacingRight=3;rotatable=0;labelPosition=right;points=[];portConstraint=eastwest;strokeColor=inherit;" vertex="1" parent="ugkiWy4A_dcpR8CHFcpf-5">
          <mxGeometry y="52" width="160" height="8" as="geometry" />
        </mxCell>
        <mxCell id="ugkiWy4A_dcpR8CHFcpf-8" value="+ execute()" style="text;strokeColor=none;fillColor=none;align=left;verticalAlign=top;spacingLeft=4;spacingRight=4;overflow=hidden;rotatable=0;points=[[0,0.5],[1,0.5]];portConstraint=eastwest;whiteSpace=wrap;html=1;" vertex="1" parent="ugkiWy4A_dcpR8CHFcpf-5">
          <mxGeometry y="60" width="160" height="26" as="geometry" />
        </mxCell>
        <mxCell id="ugkiWy4A_dcpR8CHFcpf-9" value="Composite" style="swimlane;fontStyle=1;align=center;verticalAlign=top;childLayout=stackLayout;horizontal=1;startSize=26;horizontalStack=0;resizeParent=1;resizeParentMax=0;resizeLast=0;collapsible=1;marginBottom=0;whiteSpace=wrap;html=1;" vertex="1" parent="WIyWlLk6GJQsqaUBKTNV-1">
          <mxGeometry x="440" y="360" width="210" height="130" as="geometry" />
        </mxCell>
        <mxCell id="ugkiWy4A_dcpR8CHFcpf-10" value="+ children : Component[]" style="text;strokeColor=none;fillColor=none;align=left;verticalAlign=top;spacingLeft=4;spacingRight=4;overflow=hidden;rotatable=0;points=[[0,0.5],[1,0.5]];portConstraint=eastwest;whiteSpace=wrap;html=1;" vertex="1" parent="ugkiWy4A_dcpR8CHFcpf-9">
          <mxGeometry y="26" width="210" height="26" as="geometry" />
        </mxCell>
        <mxCell id="ugkiWy4A_dcpR8CHFcpf-11" value="" style="line;strokeWidth=1;fillColor=none;align=left;verticalAlign=middle;spacingTop=-1;spacingLeft=3;spacingRight=3;rotatable=0;labelPosition=right;points=[];portConstraint=eastwest;strokeColor=inherit;" vertex="1" parent="ugkiWy4A_dcpR8CHFcpf-9">
          <mxGeometry y="52" width="210" height="8" as="geometry" />
        </mxCell>
        <mxCell id="ugkiWy4A_dcpR8CHFcpf-12" value="+ add(c:Component()&lt;div&gt;+ remove(c:Component()&lt;br&gt;&lt;/div&gt;&lt;div&gt;+ getChildren(): Component[]&lt;br&gt;&lt;/div&gt;&lt;div&gt;+ execute()&lt;/div&gt;" style="text;strokeColor=none;fillColor=none;align=left;verticalAlign=top;spacingLeft=4;spacingRight=4;overflow=hidden;rotatable=0;points=[[0,0.5],[1,0.5]];portConstraint=eastwest;whiteSpace=wrap;html=1;" vertex="1" parent="ugkiWy4A_dcpR8CHFcpf-9">
          <mxGeometry y="60" width="210" height="70" as="geometry" />
        </mxCell>
        <mxCell id="ugkiWy4A_dcpR8CHFcpf-20" value="" style="endArrow=none;html=1;rounded=0;" edge="1" parent="WIyWlLk6GJQsqaUBKTNV-1">
          <mxGeometry width="50" height="50" relative="1" as="geometry">
            <mxPoint x="540" y="360" as="sourcePoint" />
            <mxPoint x="260" y="320" as="targetPoint" />
          </mxGeometry>
        </mxCell>
        <mxCell id="ugkiWy4A_dcpR8CHFcpf-24" value="1" style="endArrow=open;html=1;endSize=12;startArrow=diamondThin;startSize=14;startFill=0;edgeStyle=orthogonalEdgeStyle;align=left;verticalAlign=bottom;rounded=0;exitX=0;exitY=0.5;exitDx=0;exitDy=0;entryX=1;entryY=0.75;entryDx=0;entryDy=0;" edge="1" parent="WIyWlLk6GJQsqaUBKTNV-1" source="ugkiWy4A_dcpR8CHFcpf-10" target="ugkiWy4A_dcpR8CHFcpf-1">
          <mxGeometry x="-1" y="3" relative="1" as="geometry">
            <mxPoint x="160" y="560" as="sourcePoint" />
            <mxPoint x="310" y="670" as="targetPoint" />
          </mxGeometry>
        </mxCell>
      </root>
    </mxGraphModel>
  </diagram>
</mxfile>
